<svg width="17" height="18" viewBox="0 0 17 18" fill="none" xmlns="http://www.w3.org/2000/svg">
<path d="M16.0556 1.28571H15.5833V0.964286C15.5833 0.431518 15.2675 0 14.875 0C14.4825 0 14.1667 0.431518 14.1667 0.964286V1.28571H1.27411C0.570503 1.28571 0 2.06237 0 3.02143V6.62384C0 7.5817 0.570503 8.35714 1.27411 8.35714C1.90158 8.35714 2.35462 9.17478 2.18226 9.99603L0.981337 16.3603C0.808976 17.1804 1.26201 18 1.88948 18H4.95302C5.37477 18 5.74517 17.6195 5.86116 17.0675L6.68194 12.8571H9.47337C10.1864 12.8571 10.8162 12.238 11.0414 11.3191L11.7642 8.35714H12.8297C13.0801 8.35714 13.3202 8.22178 13.4976 7.98055L14.1667 7.07143H16.0556C16.5771 7.07143 17 6.49567 17 5.78571V2.57143C17 1.86147 16.578 1.28571 16.0556 1.28571ZM9.69531 10.7116C9.66285 10.8402 9.57431 10.9286 9.47101 10.9286H7.05677L7.55556 8.35714H10.2714L9.69531 10.7116ZM14.1667 5.14286H1.88889V3.85714H14.1667V5.14286Z" fill="black"/>
</svg>
