<svg width="22" height="22" viewBox="0 0 22 22" fill="none" xmlns="http://www.w3.org/2000/svg">
<path d="M8.00011 9.86998L7.80011 10.13C7.93011 10.4 8.00011 10.7 8.00011 11C7.99821 11.4685 7.83187 11.9215 7.53011 12.28L12.0001 19H16.0001V21H6.00011V19H9.62011L5.58011 12.95C5.13373 12.8541 4.73359 12.6084 4.44617 12.2537C4.15874 11.8989 4.00134 11.4565 4.00011 11C4.00011 9.89998 4.90011 8.99998 6.00011 8.99998H6.14011L6.53011 8.41998L0.110107 1.99998L1.39011 0.72998L21.1101 20.46L19.8401 21.73L8.00011 9.86998ZM17.3301 5.99998L15.6701 8.49998C16.3501 8.94998 17.2901 8.76998 17.7501 8.07998C18.2101 7.38998 18.0001 6.45998 17.3301 5.99998ZM8.57011 5.36998L10.0001 6.81998L11.0001 5.36998C10.7801 7.04998 11.7501 8.88998 13.4501 9.99998L17.8901 3.36998C16.2001 2.23998 14.1201 2.03998 12.6501 2.86998L9.85011 0.99998L8.18011 3.49998L9.32011 4.24998L8.57011 5.36998Z" fill="black"/>
</svg>
