<svg width="178" height="30" viewBox="0 0 178 30" fill="none" xmlns="http://www.w3.org/2000/svg">
<g clip-path="url(#clip0_104_1709)">
<path d="M18.5835 2.66675L7.3335 7.66675V15.1667C7.3335 22.1042 12.1335 28.5918 18.5835 30.1667C25.0335 28.5918 29.8335 22.1042 29.8335 15.1667V7.66675L18.5835 2.66675ZM18.5835 16.4042H27.3335C26.671 21.5542 23.2335 26.1418 18.5835 27.5793V16.4167H9.8335V9.29175L18.5835 5.40425V16.4042Z" fill="#6E77F6"/>
</g>
<path d="M44.52 23.2C43.3867 23.2 42.4133 23.0067 41.6 22.62C40.8 22.2333 40.0733 21.6533 39.42 20.88L41.22 19.08C41.6333 19.6267 42.1133 20.0533 42.66 20.36C43.2067 20.6533 43.8733 20.8 44.66 20.8C45.3667 20.8 45.9267 20.66 46.34 20.38C46.7667 20.1 46.98 19.7133 46.98 19.22C46.98 18.7933 46.86 18.4467 46.62 18.18C46.38 17.9133 46.06 17.6867 45.66 17.5C45.2733 17.3133 44.84 17.1467 44.36 17C43.8933 16.84 43.42 16.66 42.94 16.46C42.4733 16.26 42.04 16.0133 41.64 15.72C41.2533 15.4133 40.94 15.0267 40.7 14.56C40.46 14.08 40.34 13.48 40.34 12.76C40.34 11.9067 40.5467 11.18 40.96 10.58C41.3733 9.98 41.94 9.52 42.66 9.2C43.38 8.88 44.1933 8.72 45.1 8.72C46.06 8.72 46.9267 8.9 47.7 9.26C48.4733 9.62 49.1067 10.0867 49.6 10.66L47.8 12.46C47.3867 12.0067 46.96 11.6733 46.52 11.46C46.0933 11.2467 45.6067 11.14 45.06 11.14C44.4333 11.14 43.94 11.26 43.58 11.5C43.22 11.74 43.04 12.0867 43.04 12.54C43.04 12.9267 43.16 13.24 43.4 13.48C43.64 13.72 43.9533 13.9267 44.34 14.1C44.74 14.2733 45.1733 14.44 45.64 14.6C46.12 14.76 46.5933 14.94 47.06 15.14C47.54 15.34 47.9733 15.6 48.36 15.92C48.76 16.24 49.08 16.6533 49.32 17.16C49.56 17.6533 49.68 18.2667 49.68 19C49.68 20.3067 49.22 21.3333 48.3 22.08C47.38 22.8267 46.12 23.2 44.52 23.2ZM56.0886 23.2C55.0753 23.2 54.1753 22.9867 53.3886 22.56C52.6019 22.12 51.9753 21.52 51.5086 20.76C51.0553 20 50.8286 19.1333 50.8286 18.16C50.8286 17.2 51.0486 16.3467 51.4886 15.6C51.9419 14.84 52.5553 14.24 53.3286 13.8C54.1019 13.3467 54.9619 13.12 55.9086 13.12C56.8419 13.12 57.6619 13.3333 58.3686 13.76C59.0886 14.1733 59.6486 14.7467 60.0486 15.48C60.4619 16.2 60.6686 17.02 60.6686 17.94C60.6686 18.1133 60.6553 18.2933 60.6286 18.48C60.6153 18.6533 60.5819 18.8533 60.5286 19.08L52.4086 19.1V17.14L59.3086 17.12L58.2486 17.94C58.2219 17.3667 58.1153 16.8867 57.9286 16.5C57.7553 16.1133 57.4953 15.82 57.1486 15.62C56.8153 15.4067 56.4019 15.3 55.9086 15.3C55.3886 15.3 54.9353 15.42 54.5486 15.66C54.1619 15.8867 53.8619 16.2133 53.6486 16.64C53.4486 17.0533 53.3486 17.5467 53.3486 18.12C53.3486 18.7067 53.4553 19.22 53.6686 19.66C53.8953 20.0867 54.2153 20.42 54.6286 20.66C55.0419 20.8867 55.5219 21 56.0686 21C56.5619 21 57.0086 20.92 57.4086 20.76C57.8086 20.5867 58.1553 20.3333 58.4486 20L59.9886 21.54C59.5219 22.0867 58.9486 22.5 58.2686 22.78C57.6019 23.06 56.8753 23.2 56.0886 23.2ZM66.8489 23.2C65.8622 23.2 64.9756 22.98 64.1889 22.54C63.4022 22.1 62.7822 21.5 62.3289 20.74C61.8756 19.98 61.6489 19.1267 61.6489 18.18C61.6489 17.22 61.8756 16.36 62.3289 15.6C62.7822 14.84 63.4022 14.24 64.1889 13.8C64.9889 13.3467 65.8756 13.12 66.8489 13.12C67.6089 13.12 68.3089 13.26 68.9489 13.54C69.5889 13.82 70.1422 14.22 70.6089 14.74L68.9289 16.44C68.6756 16.16 68.3689 15.9467 68.0089 15.8C67.6622 15.6533 67.2756 15.58 66.8489 15.58C66.3689 15.58 65.9356 15.6933 65.5489 15.92C65.1756 16.1333 64.8756 16.4333 64.6489 16.82C64.4356 17.1933 64.3289 17.64 64.3289 18.16C64.3289 18.6667 64.4356 19.12 64.6489 19.52C64.8756 19.9067 65.1756 20.2133 65.5489 20.44C65.9356 20.6533 66.3689 20.76 66.8489 20.76C67.2889 20.76 67.6822 20.6867 68.0289 20.54C68.3889 20.38 68.6956 20.1533 68.9489 19.86L70.6489 21.56C70.1556 22.0933 69.5889 22.5 68.9489 22.78C68.3089 23.06 67.6089 23.2 66.8489 23.2ZM76.2527 23.2C75.3993 23.2 74.6393 23.02 73.9727 22.66C73.3193 22.3 72.806 21.8 72.4327 21.16C72.0593 20.52 71.8727 19.78 71.8727 18.94V13.34H74.5127V18.88C74.5127 19.28 74.5793 19.6267 74.7127 19.92C74.846 20.2 75.046 20.4133 75.3127 20.56C75.5793 20.7067 75.8927 20.78 76.2527 20.78C76.7993 20.78 77.226 20.6133 77.5327 20.28C77.8393 19.9467 77.9927 19.48 77.9927 18.88V13.34H80.6127V18.94C80.6127 19.7933 80.426 20.54 80.0527 21.18C79.6927 21.82 79.1793 22.32 78.5127 22.68C77.8593 23.0267 77.106 23.2 76.2527 23.2ZM82.6991 23V13.34H85.3191V23H82.6991ZM85.3191 17.66L84.2991 16.98C84.4191 15.7933 84.7657 14.86 85.3391 14.18C85.9124 13.4867 86.7391 13.14 87.8191 13.14C88.2857 13.14 88.7057 13.22 89.0791 13.38C89.4524 13.5267 89.7924 13.7733 90.0991 14.12L88.4591 16C88.3124 15.84 88.1324 15.72 87.9191 15.64C87.7191 15.56 87.4857 15.52 87.2191 15.52C86.6591 15.52 86.1991 15.7 85.8391 16.06C85.4924 16.4067 85.3191 16.94 85.3191 17.66ZM91.0194 23V13.34H93.6594V23H91.0194ZM92.3394 11.78C91.9127 11.78 91.5594 11.64 91.2794 11.36C90.9994 11.0667 90.8594 10.7067 90.8594 10.28C90.8594 9.86667 90.9994 9.51333 91.2794 9.22C91.5594 8.92667 91.9127 8.78 92.3394 8.78C92.7794 8.78 93.1327 8.92667 93.3994 9.22C93.6794 9.51333 93.8194 9.86667 93.8194 10.28C93.8194 10.7067 93.6794 11.0667 93.3994 11.36C93.1327 11.64 92.7794 11.78 92.3394 11.78ZM97.4003 23V9.32H100.02V23H97.4003ZM95.1403 15.64V13.34H102.28V15.64H95.1403ZM106.794 23.08L102.754 13.34H105.594L108.274 20.78H107.314L110.094 13.34H112.954L108.654 23.06L106.794 23.08ZM104.114 27.04L107.054 20.82L108.654 23.06L106.894 27.04H104.114Z" fill="black"/>
<path d="M114.561 23V8.94H116.481L122.181 18.06H121.081L126.761 8.94H128.681V23H125.981V13.6L126.501 13.76L122.541 20.12H120.701L116.741 13.76L117.281 13.6V23H114.561ZM135.813 23.2C134.84 23.2 133.96 22.98 133.173 22.54C132.4 22.0867 131.78 21.48 131.313 20.72C130.86 19.9467 130.633 19.0867 130.633 18.14C130.633 17.1933 130.86 16.3467 131.313 15.6C131.767 14.84 132.387 14.24 133.173 13.8C133.96 13.3467 134.833 13.12 135.793 13.12C136.78 13.12 137.66 13.3467 138.433 13.8C139.22 14.24 139.84 14.84 140.293 15.6C140.747 16.3467 140.973 17.1933 140.973 18.14C140.973 19.0867 140.747 19.9467 140.293 20.72C139.84 21.48 139.22 22.0867 138.433 22.54C137.66 22.98 136.787 23.2 135.813 23.2ZM135.793 20.76C136.287 20.76 136.72 20.6533 137.093 20.44C137.48 20.2133 137.773 19.9067 137.973 19.52C138.187 19.12 138.293 18.6667 138.293 18.16C138.293 17.6533 138.187 17.2067 137.973 16.82C137.76 16.4333 137.467 16.1333 137.093 15.92C136.72 15.6933 136.287 15.58 135.793 15.58C135.313 15.58 134.887 15.6933 134.513 15.92C134.14 16.1333 133.847 16.4333 133.633 16.82C133.42 17.2067 133.313 17.6533 133.313 18.16C133.313 18.6667 133.42 19.12 133.633 19.52C133.847 19.9067 134.14 20.2133 134.513 20.44C134.887 20.6533 135.313 20.76 135.793 20.76ZM148.02 23.2C147.327 23.2 146.7 23.0533 146.14 22.76C145.58 22.4667 145.133 22.0667 144.8 21.56C144.467 21.0533 144.287 20.4867 144.26 19.86V16.42C144.287 15.7933 144.467 15.2333 144.8 14.74C145.147 14.2333 145.6 13.84 146.16 13.56C146.72 13.28 147.34 13.14 148.02 13.14C148.913 13.14 149.713 13.36 150.42 13.8C151.127 14.24 151.68 14.84 152.08 15.6C152.493 16.36 152.7 17.22 152.7 18.18C152.7 19.1267 152.493 19.98 152.08 20.74C151.68 21.5 151.127 22.1 150.42 22.54C149.713 22.98 148.913 23.2 148.02 23.2ZM147.58 20.78C148.06 20.78 148.48 20.6733 148.84 20.46C149.213 20.2333 149.5 19.9267 149.7 19.54C149.913 19.14 150.02 18.68 150.02 18.16C150.02 17.6533 149.913 17.2067 149.7 16.82C149.5 16.42 149.213 16.1133 148.84 15.9C148.467 15.6733 148.04 15.56 147.56 15.56C147.08 15.56 146.653 15.6733 146.28 15.9C145.92 16.1133 145.633 16.42 145.42 16.82C145.22 17.2067 145.12 17.6533 145.12 18.16C145.12 18.68 145.22 19.14 145.42 19.54C145.633 19.9267 145.927 20.2333 146.3 20.46C146.673 20.6733 147.1 20.78 147.58 20.78ZM142.66 23V8.54H145.28V15.72L144.84 18.04L145.26 20.4V23H142.66Z" fill="#6E77F6"/>
<defs>
<clipPath id="clip0_104_1709">
<rect width="30" height="30" fill="white"/>
</clipPath>
</defs>
</svg>
