<svg width="186" height="271" viewBox="0 0 186 271" fill="none" xmlns="http://www.w3.org/2000/svg">
<g clip-path="url(#clip0_436_581)">
<path d="M93.9165 13.3333L37.6665 38.3333V75.8333C37.6665 110.521 61.6665 142.958 93.9165 150.833C126.167 142.958 150.167 110.521 150.167 75.8333V38.3333L93.9165 13.3333ZM93.9165 82.0208H137.667C134.354 107.771 117.167 130.708 93.9165 137.896V82.0833H50.1665V46.4583L93.9165 27.0208V82.0208Z" fill="#6E77F6"/>
</g>
<path d="M8.28 242.3C6.58 242.3 5.12 242.01 3.9 241.43C2.7 240.85 1.61 239.98 0.63 238.82L3.33 236.12C3.95 236.94 4.67 237.58 5.49 238.04C6.31 238.48 7.31 238.7 8.49 238.7C9.55 238.7 10.39 238.49 11.01 238.07C11.65 237.65 11.97 237.07 11.97 236.33C11.97 235.69 11.79 235.17 11.43 234.77C11.07 234.37 10.59 234.03 9.99 233.75C9.41 233.47 8.76 233.22 8.04 233C7.34 232.76 6.63 232.49 5.91 232.19C5.21 231.89 4.56 231.52 3.96 231.08C3.38 230.62 2.91 230.04 2.55 229.34C2.19 228.62 2.01 227.72 2.01 226.64C2.01 225.36 2.32 224.27 2.94 223.37C3.56 222.47 4.41 221.78 5.49 221.3C6.57 220.82 7.79 220.58 9.15 220.58C10.59 220.58 11.89 220.85 13.05 221.39C14.21 221.93 15.16 222.63 15.9 223.49L13.2 226.19C12.58 225.51 11.94 225.01 11.28 224.69C10.64 224.37 9.91 224.21 9.09 224.21C8.15 224.21 7.41 224.39 6.87 224.75C6.33 225.11 6.06 225.63 6.06 226.31C6.06 226.89 6.24 227.36 6.6 227.72C6.96 228.08 7.43 228.39 8.01 228.65C8.61 228.91 9.26 229.16 9.96 229.4C10.68 229.64 11.39 229.91 12.09 230.21C12.81 230.51 13.46 230.9 14.04 231.38C14.64 231.86 15.12 232.48 15.48 233.24C15.84 233.98 16.02 234.9 16.02 236C16.02 237.96 15.33 239.5 13.95 240.62C12.57 241.74 10.68 242.3 8.28 242.3ZM25.6329 242.3C24.1129 242.3 22.7629 241.98 21.5829 241.34C20.4029 240.68 19.4629 239.78 18.7629 238.64C18.0829 237.5 17.7429 236.2 17.7429 234.74C17.7429 233.3 18.0729 232.02 18.7329 230.9C19.4129 229.76 20.3329 228.86 21.4929 228.2C22.6529 227.52 23.9429 227.18 25.3629 227.18C26.7629 227.18 27.9929 227.5 29.0529 228.14C30.1329 228.76 30.9729 229.62 31.5729 230.72C32.1929 231.8 32.5029 233.03 32.5029 234.41C32.5029 234.67 32.4829 234.94 32.4429 235.22C32.4229 235.48 32.3729 235.78 32.2929 236.12L20.1129 236.15V233.21L30.4629 233.18L28.8729 234.41C28.8329 233.55 28.6729 232.83 28.3929 232.25C28.1329 231.67 27.7429 231.23 27.2229 230.93C26.7229 230.61 26.1029 230.45 25.3629 230.45C24.5829 230.45 23.9029 230.63 23.3229 230.99C22.7429 231.33 22.2929 231.82 21.9729 232.46C21.6729 233.08 21.5229 233.82 21.5229 234.68C21.5229 235.56 21.6829 236.33 22.0029 236.99C22.3429 237.63 22.8229 238.13 23.4429 238.49C24.0629 238.83 24.7829 239 25.6029 239C26.3429 239 27.0129 238.88 27.6129 238.64C28.2129 238.38 28.7329 238 29.1729 237.5L31.4829 239.81C30.7829 240.63 29.9229 241.25 28.9029 241.67C27.9029 242.09 26.8129 242.3 25.6329 242.3ZM41.7734 242.3C40.2934 242.3 38.9634 241.97 37.7834 241.31C36.6034 240.65 35.6734 239.75 34.9934 238.61C34.3134 237.47 33.9734 236.19 33.9734 234.77C33.9734 233.33 34.3134 232.04 34.9934 230.9C35.6734 229.76 36.6034 228.86 37.7834 228.2C38.9834 227.52 40.3134 227.18 41.7734 227.18C42.9134 227.18 43.9634 227.39 44.9234 227.81C45.8834 228.23 46.7134 228.83 47.4134 229.61L44.8934 232.16C44.5134 231.74 44.0534 231.42 43.5134 231.2C42.9934 230.98 42.4134 230.87 41.7734 230.87C41.0534 230.87 40.4034 231.04 39.8234 231.38C39.2634 231.7 38.8134 232.15 38.4734 232.73C38.1534 233.29 37.9934 233.96 37.9934 234.74C37.9934 235.5 38.1534 236.18 38.4734 236.78C38.8134 237.36 39.2634 237.82 39.8234 238.16C40.4034 238.48 41.0534 238.64 41.7734 238.64C42.4334 238.64 43.0234 238.53 43.5434 238.31C44.0834 238.07 44.5434 237.73 44.9234 237.29L47.4734 239.84C46.7334 240.64 45.8834 241.25 44.9234 241.67C43.9634 242.09 42.9134 242.3 41.7734 242.3ZM55.879 242.3C54.599 242.3 53.459 242.03 52.459 241.49C51.479 240.95 50.709 240.2 50.149 239.24C49.589 238.28 49.309 237.17 49.309 235.91V227.51H53.269V235.82C53.269 236.42 53.369 236.94 53.569 237.38C53.769 237.8 54.069 238.12 54.469 238.34C54.869 238.56 55.339 238.67 55.879 238.67C56.699 238.67 57.339 238.42 57.799 237.92C58.259 237.42 58.489 236.72 58.489 235.82V227.51H62.419V235.91C62.419 237.19 62.139 238.31 61.579 239.27C61.039 240.23 60.269 240.98 59.269 241.52C58.289 242.04 57.159 242.3 55.879 242.3ZM65.5486 242V227.51H69.4786V242H65.5486ZM69.4786 233.99L67.9486 232.97C68.1286 231.19 68.6486 229.79 69.5086 228.77C70.3686 227.73 71.6086 227.21 73.2286 227.21C73.9286 227.21 74.5586 227.33 75.1186 227.57C75.6786 227.79 76.1886 228.16 76.6486 228.68L74.1886 231.5C73.9686 231.26 73.6986 231.08 73.3786 230.96C73.0786 230.84 72.7286 230.78 72.3286 230.78C71.4886 230.78 70.7986 231.05 70.2586 231.59C69.7386 232.11 69.4786 232.91 69.4786 233.99ZM78.0291 242V227.51H81.9891V242H78.0291ZM80.0091 225.17C79.3691 225.17 78.8391 224.96 78.4191 224.54C77.9991 224.1 77.7891 223.56 77.7891 222.92C77.7891 222.3 77.9991 221.77 78.4191 221.33C78.8391 220.89 79.3691 220.67 80.0091 220.67C80.6691 220.67 81.1991 220.89 81.5991 221.33C82.0191 221.77 82.2291 222.3 82.2291 222.92C82.2291 223.56 82.0191 224.1 81.5991 224.54C81.1991 224.96 80.6691 225.17 80.0091 225.17ZM87.6005 242V221.48H91.5305V242H87.6005ZM84.2105 230.96V227.51H94.9205V230.96H84.2105ZM101.691 242.12L95.6306 227.51H99.8906L103.911 238.67H102.471L106.641 227.51H110.931L104.481 242.09L101.691 242.12ZM97.6706 248.06L102.081 238.73L104.481 242.09L101.841 248.06H97.6706Z" fill="black"/>
<path d="M113.342 242V220.91H116.222L124.772 234.59H123.122L131.642 220.91H134.522V242H130.472V227.9L131.252 228.14L125.312 237.68H122.552L116.612 228.14L117.422 227.9V242H113.342ZM145.22 242.3C143.76 242.3 142.44 241.97 141.26 241.31C140.1 240.63 139.17 239.72 138.47 238.58C137.79 237.42 137.45 236.13 137.45 234.71C137.45 233.29 137.79 232.02 138.47 230.9C139.15 229.76 140.08 228.86 141.26 228.2C142.44 227.52 143.75 227.18 145.19 227.18C146.67 227.18 147.99 227.52 149.15 228.2C150.33 228.86 151.26 229.76 151.94 230.9C152.62 232.02 152.96 233.29 152.96 234.71C152.96 236.13 152.62 237.42 151.94 238.58C151.26 239.72 150.33 240.63 149.15 241.31C147.99 241.97 146.68 242.3 145.22 242.3ZM145.19 238.64C145.93 238.64 146.58 238.48 147.14 238.16C147.72 237.82 148.16 237.36 148.46 236.78C148.78 236.18 148.94 235.5 148.94 234.74C148.94 233.98 148.78 233.31 148.46 232.73C148.14 232.15 147.7 231.7 147.14 231.38C146.58 231.04 145.93 230.87 145.19 230.87C144.47 230.87 143.83 231.04 143.27 231.38C142.71 231.7 142.27 232.15 141.95 232.73C141.63 233.31 141.47 233.98 141.47 234.74C141.47 235.5 141.63 236.18 141.95 236.78C142.27 237.36 142.71 237.82 143.27 238.16C143.83 238.48 144.47 238.64 145.19 238.64ZM163.53 242.3C162.49 242.3 161.55 242.08 160.71 241.64C159.87 241.2 159.2 240.6 158.7 239.84C158.2 239.08 157.93 238.23 157.89 237.29V232.13C157.93 231.19 158.2 230.35 158.7 229.61C159.22 228.85 159.9 228.26 160.74 227.84C161.58 227.42 162.51 227.21 163.53 227.21C164.87 227.21 166.07 227.54 167.13 228.2C168.19 228.86 169.02 229.76 169.62 230.9C170.24 232.04 170.55 233.33 170.55 234.77C170.55 236.19 170.24 237.47 169.62 238.61C169.02 239.75 168.19 240.65 167.13 241.31C166.07 241.97 164.87 242.3 163.53 242.3ZM162.87 238.67C163.59 238.67 164.22 238.51 164.76 238.19C165.32 237.85 165.75 237.39 166.05 236.81C166.37 236.21 166.53 235.52 166.53 234.74C166.53 233.98 166.37 233.31 166.05 232.73C165.75 232.13 165.32 231.67 164.76 231.35C164.2 231.01 163.56 230.84 162.84 230.84C162.12 230.84 161.48 231.01 160.92 231.35C160.38 231.67 159.95 232.13 159.63 232.73C159.33 233.31 159.18 233.98 159.18 234.74C159.18 235.52 159.33 236.21 159.63 236.81C159.95 237.39 160.39 237.85 160.95 238.19C161.51 238.51 162.15 238.67 162.87 238.67ZM155.49 242V220.31H159.42V231.08L158.76 234.56L159.39 238.1V242H155.49Z" fill="#6E77F6"/>
<defs>
<clipPath id="clip0_436_581">
<rect width="150" height="150" fill="white" transform="translate(1)"/>
</clipPath>
</defs>
</svg>
