<svg width="27" height="20" viewBox="0 0 27 20" fill="none" xmlns="http://www.w3.org/2000/svg">
<path d="M26.5084 18.0553L26.5155 18.052L24.2571 14.7715H25.1459V14.7682C25.3313 14.7682 25.4816 14.6423 25.4816 14.4868C25.4816 14.4387 25.4634 14.3956 25.4382 14.3561L25.4441 14.3532L23.3557 11.3193H23.8638V11.3169C23.9273 11.3169 23.9882 11.2958 24.0331 11.2581C24.078 11.2205 24.1033 11.1695 24.1034 11.1162C24.1025 11.0834 24.0918 11.0513 24.0724 11.0229L24.0764 11.0208L21.0378 6.60623L21.0347 6.60779C21.0016 6.54943 20.9495 6.50008 20.8845 6.4654C20.8195 6.43073 20.7441 6.41213 20.667 6.41175C20.5046 6.41175 20.367 6.49261 20.2997 6.60727L20.2981 6.60649L17.2595 11.0208L17.2601 11.021C17.2397 11.0499 17.2285 11.0827 17.2276 11.1162C17.2276 11.227 17.3348 11.3169 17.4672 11.3169V11.3193H17.9821L15.8937 14.3532L15.8946 14.3535C15.8661 14.3939 15.8504 14.4398 15.849 14.4868C15.849 14.6423 15.9994 14.7682 16.1847 14.7682V14.7715H17.0819L16.4309 15.7174L13.8272 11.9349H15.0815V11.9303C15.3431 11.9303 15.5551 11.7522 15.5551 11.533C15.5551 11.4654 15.5331 11.4025 15.4975 11.3466L15.5021 11.3442L12.555 7.06279H13.272V7.05967C13.3164 7.05971 13.3605 7.05239 13.4015 7.03813C13.4426 7.02387 13.4799 7.00295 13.5113 6.97658C13.5428 6.9502 13.5677 6.91889 13.5846 6.88443C13.6016 6.84997 13.6103 6.81304 13.6102 6.77575C13.6102 6.72739 13.5919 6.68397 13.5665 6.64419L13.5724 6.64133L9.28384 0.412515L9.28229 0.413295C9.23495 0.330902 9.16091 0.261353 9.06864 0.212612C8.97637 0.163871 8.8696 0.137908 8.76056 0.137695C8.52558 0.137695 8.32408 0.255215 8.23232 0.423695L3.95215 6.64133L3.95308 6.64185C3.92431 6.68253 3.90851 6.72873 3.9072 6.77601C3.90712 6.81327 3.9158 6.85018 3.93274 6.88463C3.94969 6.91907 3.97456 6.95037 4.00595 6.97674C4.03733 7.00312 4.07461 7.02404 4.11565 7.03831C4.15668 7.05259 4.20067 7.05993 4.2451 7.05993V7.06305H4.97205L2.0596 11.2938C1.9965 11.3623 1.96208 11.4464 1.96164 11.533C1.96164 11.7524 2.17399 11.9303 2.43532 11.9303V11.9349H3.70136L0.557958 16.5018C0.483558 16.5835 0.437988 16.6844 0.437988 16.7951C0.437988 17.0634 0.697768 17.2813 1.018 17.2813V17.2868H7.14949V19.4786C7.14949 19.6905 7.3544 19.8626 7.60705 19.8626H9.89578C10.1484 19.8626 10.3536 19.6907 10.3536 19.4786V17.2868H15.3508L14.8242 18.052L14.8251 18.0525C14.7928 18.1016 14.7693 18.1554 14.7693 18.2158C14.7693 18.4061 14.9531 18.5603 15.18 18.5603V18.5642H19.525V19.5888C19.525 19.7391 19.6704 19.8608 19.8493 19.8608H21.4712C21.6504 19.8608 21.7954 19.7391 21.7954 19.5888V18.5642H26.1509V18.5603C26.3779 18.5603 26.562 18.4061 26.562 18.2158C26.5604 18.1594 26.542 18.1042 26.5084 18.0553Z" fill="black"/>
</svg>
